<svg width="65" height="60" viewBox="0 0 65 60" fill="none" xmlns="http://www.w3.org/2000/svg">
<path fill-rule="evenodd" clip-rule="evenodd" d="M0 9.61429C0 7.06442 1.01293 4.61899 2.81596 2.81596C4.61899 1.01293 7.06442 0 9.61429 0H54.481C57.0309 0 59.4763 1.01293 61.2793 2.81596C63.0824 4.61899 64.0953 7.06442 64.0953 9.61429V41.6619C64.0953 44.2118 63.0824 46.6572 61.2793 48.4603C59.4763 50.2633 57.0309 51.2762 54.481 51.2762H41.1107C40.2608 51.2764 39.4458 51.6142 38.845 52.2152L32.8617 58.1985C29.0159 62.0474 22.4334 59.3202 22.4334 53.8785C22.4334 53.1883 22.1592 52.5264 21.6712 52.0384C21.1831 51.5504 20.5212 51.2762 19.8311 51.2762H9.61429C7.06442 51.2762 4.61899 50.2633 2.81596 48.4603C1.01293 46.6572 0 44.2118 0 41.6619V9.61429ZM16.0238 9.61429C15.1739 9.61429 14.3587 9.95194 13.7577 10.5529C13.1567 11.154 12.8191 11.9691 12.8191 12.8191C12.8191 13.669 13.1567 14.4842 13.7577 15.0852C14.3587 15.6862 15.1739 16.0238 16.0238 16.0238H48.0715C48.9214 16.0238 49.7366 15.6862 50.3376 15.0852C50.9386 14.4842 51.2762 13.669 51.2762 12.8191C51.2762 11.9691 50.9386 11.154 50.3376 10.5529C49.7366 9.95194 48.9214 9.61429 48.0715 9.61429H16.0238ZM16.0238 22.4333C15.1739 22.4333 14.3587 22.771 13.7577 23.372C13.1567 23.973 12.8191 24.7882 12.8191 25.6381C12.8191 26.4881 13.1567 27.3032 13.7577 27.9042C14.3587 28.5052 15.1739 28.8429 16.0238 28.8429H48.0715C48.9214 28.8429 49.7366 28.5052 50.3376 27.9042C50.9386 27.3032 51.2762 26.4881 51.2762 25.6381C51.2762 24.7882 50.9386 23.973 50.3376 23.372C49.7366 22.771 48.9214 22.4333 48.0715 22.4333H16.0238ZM16.0238 35.2524C15.1739 35.2524 14.3587 35.59 13.7577 36.1911C13.1567 36.7921 12.8191 37.6072 12.8191 38.4572C12.8191 39.3071 13.1567 40.1223 13.7577 40.7233C14.3587 41.3243 15.1739 41.6619 16.0238 41.6619H28.8429C29.6928 41.6619 30.508 41.3243 31.109 40.7233C31.71 40.1223 32.0476 39.3071 32.0476 38.4572C32.0476 37.6072 31.71 36.7921 31.109 36.1911C30.508 35.59 29.6928 35.2524 28.8429 35.2524H16.0238Z" fill="#070606" fill-opacity="0.4"/>
</svg>
