<svg width="60" height="60" viewBox="0 0 60 60" fill="none" xmlns="http://www.w3.org/2000/svg">
<path d="M27 29.4V39C27 39.85 27.288 40.563 27.864 41.139C28.44 41.715 29.152 42.002 30 42C30.85 42 31.563 41.712 32.139 41.136C32.715 40.56 33.002 39.848 33 39V29.4L35.7 32.1C36.25 32.65 36.95 32.925 37.8 32.925C38.65 32.925 39.35 32.65 39.9 32.1C40.45 31.55 40.725 30.85 40.725 30C40.725 29.15 40.45 28.45 39.9 27.9L32.1 20.1C31.5 19.5 30.8 19.2 30 19.2C29.2 19.2 28.5 19.5 27.9 20.1L20.1 27.9C19.55 28.45 19.275 29.15 19.275 30C19.275 30.85 19.55 31.55 20.1 32.1C20.65 32.65 21.35 32.925 22.2 32.925C23.05 32.925 23.75 32.65 24.3 32.1L27 29.4ZM30 60C25.85 60 21.95 59.212 18.3 57.636C14.65 56.06 11.475 53.923 8.775 51.225C6.075 48.525 3.938 45.35 2.364 41.7C0.79 38.05 0.002 34.15 0 30C0 25.85 0.788 21.95 2.364 18.3C3.94 14.65 6.077 11.475 8.775 8.775C11.475 6.075 14.65 3.938 18.3 2.364C21.95 0.79 25.85 0.002 30 0C34.15 0 38.05 0.788 41.7 2.364C45.35 3.94 48.525 6.077 51.225 8.775C53.925 11.475 56.063 14.65 57.639 18.3C59.215 21.95 60.002 25.85 60 30C60 34.15 59.212 38.05 57.636 41.7C56.06 45.35 53.923 48.525 51.225 51.225C48.525 53.925 45.35 56.063 41.7 57.639C38.05 59.215 34.15 60.002 30 60Z" fill="#FF8400"/>
</svg>
