<svg width="41" height="40" viewBox="0 0 41 40" fill="none" xmlns="http://www.w3.org/2000/svg">
<path d="M29.8138 0.650644C30.2305 0.234037 30.7957 0 31.3849 0C31.9742 0 32.5393 0.234037 32.956 0.650644L39.6228 7.31739C40.0394 7.73412 40.2734 8.29926 40.2734 8.88852C40.2734 9.47778 40.0394 10.0429 39.6228 10.4596L19.6226 30.4599C19.2059 30.8767 18.6408 31.1109 18.0514 31.111H11.3847C10.7953 31.111 10.2301 30.8769 9.81331 30.4601C9.39656 30.0434 9.16243 29.4781 9.16243 28.8888V22.222C9.16256 21.6327 9.39677 21.0675 9.81355 20.6509L29.8138 0.650644ZM13.6069 23.142V26.6665H17.1314L34.9094 8.88852L31.3849 5.36403L13.6069 23.142ZM0.273438 8.88852C0.273438 7.70977 0.741695 6.57929 1.5752 5.74579C2.40871 4.91228 3.53918 4.44402 4.71793 4.44402H15.8292C16.4186 4.44402 16.9838 4.67815 17.4005 5.0949C17.8173 5.51166 18.0514 6.07689 18.0514 6.66627C18.0514 7.25565 17.8173 7.82089 17.4005 8.23764C16.9838 8.65439 16.4186 8.88852 15.8292 8.88852H4.71793V35.5555H31.3849V24.4443C31.3849 23.8549 31.619 23.2896 32.0358 22.8729C32.4525 22.4561 33.0178 22.222 33.6072 22.222C34.1965 22.222 34.7618 22.4561 35.1785 22.8729C35.5953 23.2896 35.8294 23.8549 35.8294 24.4443V35.5555C35.8294 36.7343 35.3612 37.8647 34.5276 38.6982C33.6941 39.5317 32.5637 40 31.3849 40H4.71793C3.53918 40 2.40871 39.5317 1.5752 38.6982C0.741695 37.8647 0.273438 36.7343 0.273438 35.5555V8.88852Z" fill="#FF8400"/>
</svg>
