<svg width="286" height="100" viewBox="0 0 286 100" fill="none" xmlns="http://www.w3.org/2000/svg">
<path d="M60.9606 81H54.4806V47.4H75.6486V53.064H60.9606V61.416H75.1686V66.936H60.9606V81ZM93.0571 61.704H90.8011C87.8251 61.704 85.5211 63.864 85.5211 67.656V81H79.2331V56.184H85.4731V58.872C86.7211 57.048 88.6891 55.944 91.3771 55.944H93.0571V61.704ZM93.9866 68.568C93.9866 61.656 99.5066 55.608 106.851 55.608C114.291 55.608 119.571 61.128 119.571 68.856V70.68H100.419C101.235 73.896 103.923 76.248 107.379 76.248C110.019 76.248 112.083 75.336 113.907 72.984L118.275 76.248C115.779 79.656 112.035 81.624 107.427 81.624C99.8426 81.624 93.9866 76.152 93.9866 68.568ZM106.707 60.984C103.779 60.984 101.379 62.856 100.515 65.88H113.235C112.323 62.808 109.731 60.984 106.707 60.984ZM132.781 81.576C126.253 81.576 122.269 77.928 121.309 73.176H127.261C127.885 75.672 130.093 76.728 132.781 76.728C135.085 76.728 136.333 75.672 136.333 74.184C136.333 73.176 135.517 72.312 133.837 71.88L128.701 70.68C124.093 69.576 121.741 67.176 121.741 63.384C121.741 58.632 125.677 55.56 131.005 55.56C137.341 55.56 141.181 59.304 141.901 64.056H135.997C135.325 61.464 133.021 60.408 130.957 60.408C128.941 60.408 127.885 61.416 127.885 62.712C127.885 64.008 128.893 64.872 130.861 65.352L135.613 66.504C140.173 67.608 142.429 70.008 142.429 73.704C142.429 78.168 138.781 81.576 132.781 81.576ZM151.452 66.456V81H145.164V47.4H151.452V58.344C153.18 56.52 155.628 55.512 158.364 55.512C164.124 55.512 168.06 59.784 168.06 65.208V81H161.772V66.456C161.772 63.24 159.708 61.128 156.636 61.128C153.612 61.128 151.452 63.144 151.452 66.456ZM178.798 81H172.318V47.4H193.486V53.064H178.798V61.416H193.006V66.936H178.798V81ZM200.707 53.544C198.739 53.544 197.155 52.008 197.155 50.04C197.155 48.072 198.739 46.584 200.707 46.584C202.675 46.584 204.163 48.072 204.163 50.04C204.163 52.008 202.675 53.544 200.707 53.544ZM203.827 56.184V81H197.539V56.184H203.827ZM230.709 65.208V81H224.421V66.456C224.421 63.24 222.357 61.128 219.285 61.128C216.261 61.128 214.101 63.144 214.101 66.456V81H207.813V56.184H214.101V58.296C215.829 56.52 218.229 55.512 220.917 55.512C226.725 55.512 230.709 59.784 230.709 65.208ZM261.368 81H255.128V78.696C252.92 80.568 250.136 81.672 247.112 81.672C239.72 81.672 233.864 75.768 233.864 68.616C233.864 61.416 239.72 55.56 247.112 55.56C250.136 55.56 252.872 56.664 255.08 58.488V47.4H261.368V81ZM255.176 68.616C255.176 64.392 251.816 61.08 247.64 61.08C243.512 61.08 240.104 64.392 240.104 68.616C240.104 72.792 243.512 76.2 247.64 76.2C251.816 76.2 255.176 72.792 255.176 68.616ZM275.377 81.576C268.849 81.576 264.865 77.928 263.905 73.176H269.857C270.481 75.672 272.689 76.728 275.377 76.728C277.681 76.728 278.929 75.672 278.929 74.184C278.929 73.176 278.113 72.312 276.433 71.88L271.297 70.68C266.689 69.576 264.337 67.176 264.337 63.384C264.337 58.632 268.273 55.56 273.601 55.56C279.937 55.56 283.777 59.304 284.497 64.056H278.593C277.921 61.464 275.617 60.408 273.553 60.408C271.537 60.408 270.481 61.416 270.481 62.712C270.481 64.008 271.489 64.872 273.457 65.352L278.209 66.504C282.769 67.608 285.025 70.008 285.025 73.704C285.025 78.168 281.377 81.576 275.377 81.576Z" fill="white"/>
<path d="M0 45.1754C0 33.0639 9.81832 23.2456 21.9298 23.2456V23.2456V78.0702C21.9298 90.1817 12.1115 100 0 100V100V45.1754Z" fill="white"/>
<path d="M26.7539 35.0877C26.7539 15.7093 42.4632 0 61.8416 0V0V17.5439C61.8416 36.9223 46.1323 52.6316 26.7539 52.6316V52.6316V35.0877Z" fill="white"/>
<path d="M26.7539 35.0877C26.7539 15.7093 42.4632 0 61.8416 0V0V17.5439C61.8416 36.9223 46.1323 52.6316 26.7539 52.6316V52.6316V35.0877Z" fill="white"/>
</svg>
