<svg width="50" height="50" viewBox="0 0 50 50" fill="none" xmlns="http://www.w3.org/2000/svg">
<path d="M39.75 38.475C39.1 36.475 37.225 35 35 35H32.5V27.5C32.5 26.837 32.2366 26.2011 31.7678 25.7322C31.2989 25.2634 30.663 25 30 25H15V20H20C20.663 20 21.2989 19.7366 21.7678 19.2678C22.2366 18.7989 22.5 18.163 22.5 17.5V12.5H27.5C28.8261 12.5 30.0979 11.9732 31.0355 11.0355C31.9732 10.0979 32.5 8.82608 32.5 7.5V6.475C35.4912 7.68091 38.1456 9.59369 40.2361 12.0496C42.3265 14.5055 43.7907 17.4314 44.5034 20.5768C45.216 23.7222 45.1558 26.9934 44.328 30.1105C43.5002 33.2276 41.9294 36.0976 39.75 38.475ZM22.5 44.825C12.625 43.6 5 35.2 5 25C5 23.45 5.2 21.95 5.525 20.525L17.5 32.5V35C17.5 36.3261 18.0268 37.5979 18.9645 38.5355C19.9021 39.4732 21.1739 40 22.5 40M25 0C21.717 0 18.4661 0.646644 15.4329 1.90301C12.3998 3.15938 9.6438 5.00087 7.32233 7.32233C2.63392 12.0107 0 18.3696 0 25C0 31.6304 2.63392 37.9893 7.32233 42.6777C9.6438 44.9991 12.3998 46.8406 15.4329 48.097C18.4661 49.3534 21.717 50 25 50C31.6304 50 37.9893 47.3661 42.6777 42.6777C47.3661 37.9893 50 31.6304 50 25C50 21.717 49.3534 18.4661 48.097 15.4329C46.8406 12.3998 44.9991 9.6438 42.6777 7.32233C40.3562 5.00087 37.6002 3.15938 34.5671 1.90301C31.5339 0.646644 28.283 0 25 0Z" fill="#FF8400"/>
</svg>
