<svg width="40" height="40" viewBox="0 0 40 40" fill="none" xmlns="http://www.w3.org/2000/svg">
<path d="M27.7786 15.5556C28.6627 15.5556 29.5105 15.2044 30.1357 14.5793C30.7608 13.9542 31.112 13.1063 31.112 12.2222C31.112 11.3382 30.7608 10.4903 30.1357 9.86523C29.5105 9.24011 28.6627 8.88892 27.7786 8.88892C26.8946 8.88892 26.0467 9.24011 25.4216 9.86523C24.7965 10.4903 24.4453 11.3382 24.4453 12.2222C24.4453 13.1063 24.7965 13.9542 25.4216 14.5793C26.0467 15.2044 26.8946 15.5556 27.7786 15.5556Z" fill="#FF8400"/>
<path d="M0 4.44444C0 3.2657 0.468252 2.13524 1.30175 1.30175C2.13524 0.468252 3.2657 0 4.44444 0H35.5556C36.7343 0 37.8648 0.468252 38.6983 1.30175C39.5317 2.13524 40 3.2657 40 4.44444V35.5556C40 36.7343 39.5317 37.8648 38.6983 38.6983C37.8648 39.5317 36.7343 40 35.5556 40H4.44444C3.2657 40 2.13524 39.5317 1.30175 38.6983C0.468252 37.8648 0 36.7343 0 35.5556V4.44444ZM35.5556 4.44444H4.44444V22.0444L11.9444 16.0444C12.3386 15.7289 12.8284 15.5569 13.3333 15.5569C13.8382 15.5569 14.3281 15.7289 14.7222 16.0444L24.2778 23.6889L27.3178 20.6511C27.7345 20.2345 28.2996 20.0005 28.8889 20.0005C29.4781 20.0005 30.0433 20.2345 30.46 20.6511L35.5556 25.7467V4.44444ZM4.44444 35.5556H35.5556V32.0311L28.8889 25.3644L26.0156 28.2378C25.6289 28.6247 25.1131 28.8554 24.567 28.8857C24.0208 28.9161 23.4827 28.7439 23.0556 28.4022L13.3333 20.6222L4.44444 27.7333V35.5556Z" fill="#FF8400"/>
</svg>
