<svg width="408" height="100" viewBox="0 0 408 100" fill="none" xmlns="http://www.w3.org/2000/svg">
<path d="M57.7072 74H52.3072V46H69.9472V50.72H57.7072V57.68H69.5472V62.28H57.7072V74ZM84.4009 57.92H82.5209C80.0409 57.92 78.1209 59.72 78.1209 62.88V74H72.8809V53.32H78.0809V55.56C79.1209 54.04 80.7609 53.12 83.0009 53.12H84.4009V57.92ZM85.1222 63.64C85.1222 57.88 89.7222 52.84 95.8422 52.84C102.042 52.84 106.442 57.44 106.442 63.88V65.4H90.4822C91.1622 68.08 93.4022 70.04 96.2822 70.04C98.4822 70.04 100.202 69.28 101.722 67.32L105.362 70.04C103.282 72.88 100.162 74.52 96.3222 74.52C90.0022 74.52 85.1222 69.96 85.1222 63.64ZM95.7222 57.32C93.2822 57.32 91.2822 58.88 90.5622 61.4H101.162C100.402 58.84 98.2422 57.32 95.7222 57.32ZM117.398 74.48C111.958 74.48 108.638 71.44 107.838 67.48H112.798C113.318 69.56 115.158 70.44 117.398 70.44C119.318 70.44 120.358 69.56 120.358 68.32C120.358 67.48 119.678 66.76 118.278 66.4L113.998 65.4C110.158 64.48 108.198 62.48 108.198 59.32C108.198 55.36 111.478 52.8 115.918 52.8C121.198 52.8 124.398 55.92 124.998 59.88H120.078C119.518 57.72 117.598 56.84 115.878 56.84C114.198 56.84 113.318 57.68 113.318 58.76C113.318 59.84 114.158 60.56 115.798 60.96L119.758 61.92C123.558 62.84 125.438 64.84 125.438 67.92C125.438 71.64 122.398 74.48 117.398 74.48ZM132.903 61.88V74H127.663V46H132.903V55.12C134.343 53.6 136.383 52.76 138.663 52.76C143.463 52.76 146.743 56.32 146.743 60.84V74H141.503V61.88C141.503 59.2 139.783 57.44 137.223 57.44C134.703 57.44 132.903 59.12 132.903 61.88ZM155.638 74H150.238V46H167.878V50.72H155.638V57.68H167.478V62.28H155.638V74ZM173.843 51.12C172.203 51.12 170.883 49.84 170.883 48.2C170.883 46.56 172.203 45.32 173.843 45.32C175.483 45.32 176.723 46.56 176.723 48.2C176.723 49.84 175.483 51.12 173.843 51.12ZM176.443 53.32V74H171.203V53.32H176.443ZM198.791 60.84V74H193.551V61.88C193.551 59.2 191.831 57.44 189.271 57.44C186.751 57.44 184.951 59.12 184.951 61.88V74H179.711V53.32H184.951V55.08C186.391 53.6 188.391 52.76 190.631 52.76C195.471 52.76 198.791 56.32 198.791 60.84ZM224.286 74H219.086V72.08C217.246 73.64 214.926 74.56 212.406 74.56C206.246 74.56 201.366 69.64 201.366 63.68C201.366 57.68 206.246 52.8 212.406 52.8C214.926 52.8 217.206 53.72 219.046 55.24V46H224.286V74ZM219.126 63.68C219.126 60.16 216.326 57.4 212.846 57.4C209.406 57.4 206.566 60.16 206.566 63.68C206.566 67.16 209.406 70 212.846 70C216.326 70 219.126 67.16 219.126 63.68ZM235.907 74.48C230.467 74.48 227.147 71.44 226.347 67.48H231.307C231.827 69.56 233.667 70.44 235.907 70.44C237.827 70.44 238.867 69.56 238.867 68.32C238.867 67.48 238.187 66.76 236.787 66.4L232.507 65.4C228.667 64.48 226.707 62.48 226.707 59.32C226.707 55.36 229.987 52.8 234.427 52.8C239.707 52.8 242.907 55.92 243.507 59.88H238.587C238.027 57.72 236.107 56.84 234.387 56.84C232.707 56.84 231.827 57.68 231.827 58.76C231.827 59.84 232.667 60.56 234.307 60.96L238.267 61.92C242.067 62.84 243.947 64.84 243.947 67.92C243.947 71.64 240.907 74.48 235.907 74.48Z" fill="black"/>
<path d="M55.6743 94H53.7843V89.912L49.9483 84.2H52.2443L54.7643 88.134L57.2843 84.2H59.5243L55.6743 89.94V94ZM65.7802 90.388C65.7802 92.488 64.0022 94.196 61.8042 94.196C59.6202 94.196 57.8282 92.488 57.8282 90.388C57.8282 88.288 59.6202 86.58 61.8042 86.58C64.0022 86.58 65.7802 88.274 65.7802 90.388ZM63.9602 90.388C63.9602 89.17 63.0082 88.204 61.8042 88.204C60.6142 88.204 59.6482 89.17 59.6482 90.388C59.6482 91.606 60.6142 92.572 61.8042 92.572C63.0082 92.572 63.9602 91.606 63.9602 90.388ZM66.4692 91.368V86.762H68.3032V91.004C68.3032 91.9 68.9052 92.558 69.8012 92.558C70.6972 92.558 71.3132 91.928 71.3132 91.004V86.762H73.1472V94H71.3132V93.356C70.8092 93.874 70.1092 94.168 69.3252 94.168C67.6312 94.168 66.4692 92.936 66.4692 91.368ZM78.1246 88.372H77.4666C76.5986 88.372 75.9266 89.002 75.9266 90.108V94H74.0926V86.762H75.9126V87.546C76.2766 87.014 76.8506 86.692 77.6346 86.692H78.1246V88.372ZM88.8772 90.388C88.8772 92.488 87.0992 94.196 84.9012 94.196C82.7172 94.196 80.9252 92.488 80.9252 90.388C80.9252 88.288 82.7172 86.58 84.9012 86.58C87.0992 86.58 88.8772 88.274 88.8772 90.388ZM87.0572 90.388C87.0572 89.17 86.1052 88.204 84.9012 88.204C83.7112 88.204 82.7452 89.17 82.7452 90.388C82.7452 91.606 83.7112 92.572 84.9012 92.572C86.1052 92.572 87.0572 91.606 87.0572 90.388ZM96.2442 89.394V94H94.4102V89.758C94.4102 88.82 93.8082 88.204 92.9122 88.204C92.0302 88.204 91.4002 88.792 91.4002 89.758V94H89.5662V86.762H91.4002V87.378C91.9042 86.86 92.6042 86.566 93.3882 86.566C95.0822 86.566 96.2442 87.812 96.2442 89.394ZM96.9375 90.374C96.9375 88.358 98.5475 86.594 100.69 86.594C102.86 86.594 104.4 88.204 104.4 90.458V90.99H98.8135C99.0515 91.928 99.8355 92.614 100.844 92.614C101.614 92.614 102.216 92.348 102.748 91.662L104.022 92.614C103.294 93.608 102.202 94.182 100.858 94.182C98.6455 94.182 96.9375 92.586 96.9375 90.374ZM100.648 88.162C99.7935 88.162 99.0935 88.708 98.8415 89.59H102.552C102.286 88.694 101.53 88.162 100.648 88.162ZM107.261 91.97C107.261 90.668 108.143 89.926 109.683 89.814L111.811 89.66V89.38C111.811 88.666 111.335 88.232 110.481 88.232C109.823 88.232 109.207 88.442 108.563 88.876L107.793 87.574C108.633 86.958 109.599 86.608 110.705 86.608C112.441 86.608 113.589 87.616 113.589 89.156V91.998C113.589 92.264 113.729 92.418 113.995 92.418H114.373V94H113.519C112.819 94 112.287 93.678 112.035 93.146C111.531 93.79 110.733 94.182 109.767 94.182C108.325 94.182 107.261 93.244 107.261 91.97ZM109.011 91.956C109.011 92.46 109.487 92.782 110.173 92.782C111.083 92.782 111.811 92.194 111.811 91.466V91.004L109.935 91.172C109.319 91.228 109.011 91.48 109.011 91.956ZM121.57 89.394V94H119.736V89.758C119.736 88.82 119.134 88.204 118.238 88.204C117.356 88.204 116.726 88.792 116.726 89.758V94H114.892V86.762H116.726V87.378C117.23 86.86 117.93 86.566 118.714 86.566C120.408 86.566 121.57 87.812 121.57 89.394ZM130.285 94H128.465V93.328C127.821 93.874 127.009 94.196 126.127 94.196C123.971 94.196 122.263 92.474 122.263 90.388C122.263 88.288 123.971 86.58 126.127 86.58C127.009 86.58 127.807 86.902 128.451 87.434V84.2H130.285V94ZM128.479 90.388C128.479 89.156 127.499 88.19 126.281 88.19C125.077 88.19 124.083 89.156 124.083 90.388C124.083 91.606 125.077 92.6 126.281 92.6C127.499 92.6 128.479 91.606 128.479 90.388ZM141.401 90.388C141.401 92.488 139.623 94.196 137.425 94.196C135.241 94.196 133.449 92.488 133.449 90.388C133.449 88.288 135.241 86.58 137.425 86.58C139.623 86.58 141.401 88.274 141.401 90.388ZM139.581 90.388C139.581 89.17 138.629 88.204 137.425 88.204C136.235 88.204 135.269 89.17 135.269 90.388C135.269 91.606 136.235 92.572 137.425 92.572C138.629 92.572 139.581 91.606 139.581 90.388ZM148.768 89.394V94H146.934V89.758C146.934 88.82 146.332 88.204 145.436 88.204C144.554 88.204 143.924 88.792 143.924 89.758V94H142.09V86.762H143.924V87.378C144.428 86.86 145.128 86.566 145.912 86.566C147.606 86.566 148.768 87.812 148.768 89.394ZM151.548 94H149.714V84.2H151.548V94ZM154.527 94.672L154.863 93.86L151.783 86.762H153.757L155.759 91.648L157.733 86.762H159.637L156.109 95.358C155.633 96.534 155.017 96.94 153.911 96.94H152.833V95.4H153.533C154.037 95.4 154.303 95.232 154.527 94.672ZM170.015 86.762V94.28C170.015 95.876 168.937 96.94 167.285 96.94H165.255V95.4H166.865C167.733 95.4 168.181 94.952 168.181 94.14V93.258C167.551 93.762 166.767 94.07 165.913 94.07C163.799 94.07 162.105 92.404 162.105 90.318C162.105 88.232 163.813 86.566 165.913 86.566C166.767 86.566 167.565 86.874 168.195 87.392V86.762H170.015ZM163.925 90.318C163.925 91.508 164.877 92.46 166.067 92.46C167.271 92.46 168.209 91.508 168.209 90.318C168.209 89.114 167.257 88.162 166.067 88.162C164.891 88.162 163.925 89.128 163.925 90.318ZM174.983 88.372H174.325C173.457 88.372 172.785 89.002 172.785 90.108V94H170.951V86.762H172.771V87.546C173.135 87.014 173.709 86.692 174.493 86.692H174.983V88.372ZM182.98 90.388C182.98 92.488 181.202 94.196 179.004 94.196C176.82 94.196 175.028 92.488 175.028 90.388C175.028 88.288 176.82 86.58 179.004 86.58C181.202 86.58 182.98 88.274 182.98 90.388ZM181.16 90.388C181.16 89.17 180.208 88.204 179.004 88.204C177.814 88.204 176.848 89.17 176.848 90.388C176.848 91.606 177.814 92.572 179.004 92.572C180.208 92.572 181.16 91.606 181.16 90.388ZM185.237 90.374C185.237 91.592 186.203 92.572 187.393 92.572C188.163 92.572 188.793 92.208 189.213 91.634L190.515 92.586C189.787 93.538 188.807 94.182 187.393 94.182C185.153 94.182 183.417 92.474 183.417 90.374C183.417 88.274 185.153 86.58 187.393 86.58C188.807 86.58 189.787 87.224 190.515 88.176L189.213 89.128C188.793 88.554 188.163 88.19 187.393 88.19C186.203 88.19 185.237 89.156 185.237 90.374ZM190.425 90.374C190.425 88.358 192.035 86.594 194.177 86.594C196.347 86.594 197.887 88.204 197.887 90.458V90.99H192.301C192.539 91.928 193.323 92.614 194.331 92.614C195.101 92.614 195.703 92.348 196.235 91.662L197.509 92.614C196.781 93.608 195.689 94.182 194.345 94.182C192.133 94.182 190.425 92.586 190.425 90.374ZM194.135 88.162C193.281 88.162 192.581 88.708 192.329 89.59H196.039C195.773 88.694 195.017 88.162 194.135 88.162ZM202.619 88.372H201.961C201.093 88.372 200.421 89.002 200.421 90.108V94H198.587V86.762H200.407V87.546C200.771 87.014 201.345 86.692 202.129 86.692H202.619V88.372ZM205.37 94.672L205.706 93.86L202.626 86.762H204.6L206.602 91.648L208.576 86.762H210.48L206.952 95.358C206.476 96.534 205.86 96.94 204.754 96.94H203.676V95.4H204.376C204.88 95.4 205.146 95.232 205.37 94.672ZM216.125 94.168C214.221 94.168 213.059 93.104 212.779 91.718H214.515C214.697 92.446 215.341 92.754 216.125 92.754C216.797 92.754 217.161 92.446 217.161 92.012C217.161 91.718 216.923 91.466 216.433 91.34L214.935 90.99C213.591 90.668 212.905 89.968 212.905 88.862C212.905 87.476 214.053 86.58 215.607 86.58C217.455 86.58 218.575 87.672 218.785 89.058H217.063C216.867 88.302 216.195 87.994 215.593 87.994C215.005 87.994 214.697 88.288 214.697 88.666C214.697 89.044 214.991 89.296 215.565 89.436L216.951 89.772C218.281 90.094 218.939 90.794 218.939 91.872C218.939 93.174 217.875 94.168 216.125 94.168ZM219.258 90.374C219.258 88.358 220.868 86.594 223.01 86.594C225.18 86.594 226.72 88.204 226.72 90.458V90.99H221.134C221.372 91.928 222.156 92.614 223.164 92.614C223.934 92.614 224.536 92.348 225.068 91.662L226.342 92.614C225.614 93.608 224.522 94.182 223.178 94.182C220.966 94.182 219.258 92.586 219.258 90.374ZM222.968 88.162C222.114 88.162 221.414 88.708 221.162 89.59H224.872C224.606 88.694 223.85 88.162 222.968 88.162ZM231.453 88.372H230.795C229.927 88.372 229.255 89.002 229.255 90.108V94H227.421V86.762H229.241V87.546C229.605 87.014 230.179 86.692 230.963 86.692H231.453V88.372ZM234.609 94L231.459 86.762H233.433L235.421 91.634L237.409 86.762H239.313L236.177 94H234.609ZM240.474 85.992C239.9 85.992 239.438 85.544 239.438 84.97C239.438 84.396 239.9 83.962 240.474 83.962C241.048 83.962 241.482 84.396 241.482 84.97C241.482 85.544 241.048 85.992 240.474 85.992ZM241.384 86.762V94H239.55V86.762H241.384ZM243.888 90.374C243.888 91.592 244.854 92.572 246.044 92.572C246.814 92.572 247.444 92.208 247.864 91.634L249.166 92.586C248.438 93.538 247.458 94.182 246.044 94.182C243.804 94.182 242.068 92.474 242.068 90.374C242.068 88.274 243.804 86.58 246.044 86.58C247.458 86.58 248.438 87.224 249.166 88.176L247.864 89.128C247.444 88.554 246.814 88.19 246.044 88.19C244.854 88.19 243.888 89.156 243.888 90.374ZM249.076 90.374C249.076 88.358 250.686 86.594 252.828 86.594C254.998 86.594 256.538 88.204 256.538 90.458V90.99H250.952C251.19 91.928 251.974 92.614 252.982 92.614C253.752 92.614 254.354 92.348 254.886 91.662L256.16 92.614C255.432 93.608 254.34 94.182 252.996 94.182C250.784 94.182 249.076 92.586 249.076 90.374ZM252.786 88.162C251.932 88.162 251.232 88.708 250.98 89.59H254.69C254.424 88.694 253.668 88.162 252.786 88.162ZM260.165 94.168C258.261 94.168 257.099 93.104 256.819 91.718H258.555C258.737 92.446 259.381 92.754 260.165 92.754C260.837 92.754 261.201 92.446 261.201 92.012C261.201 91.718 260.963 91.466 260.473 91.34L258.975 90.99C257.631 90.668 256.945 89.968 256.945 88.862C256.945 87.476 258.093 86.58 259.647 86.58C261.495 86.58 262.615 87.672 262.825 89.058H261.103C260.907 88.302 260.235 87.994 259.633 87.994C259.045 87.994 258.737 88.288 258.737 88.666C258.737 89.044 259.031 89.296 259.605 89.436L260.991 89.772C262.321 90.094 262.979 90.794 262.979 91.872C262.979 93.174 261.915 94.168 260.165 94.168ZM268.944 94C267.628 94 266.956 93.216 266.956 92.18V88.344H265.542V86.762H266.956V84.662H268.776V86.762H270.372V88.344H268.776V91.858C268.776 92.236 269.042 92.418 269.462 92.418H270.372V94H268.944ZM272.673 89.758V94H270.839V84.2H272.673V87.392C273.177 86.86 273.891 86.566 274.689 86.566C276.369 86.566 277.517 87.812 277.517 89.394V94H275.683V89.758C275.683 88.82 275.081 88.204 274.185 88.204C273.303 88.204 272.673 88.792 272.673 89.758ZM278.141 91.97C278.141 90.668 279.023 89.926 280.563 89.814L282.691 89.66V89.38C282.691 88.666 282.215 88.232 281.361 88.232C280.703 88.232 280.087 88.442 279.443 88.876L278.673 87.574C279.513 86.958 280.479 86.608 281.585 86.608C283.321 86.608 284.469 87.616 284.469 89.156V91.998C284.469 92.264 284.609 92.418 284.875 92.418H285.253V94H284.399C283.699 94 283.167 93.678 282.915 93.146C282.411 93.79 281.613 94.182 280.647 94.182C279.205 94.182 278.141 93.244 278.141 91.97ZM279.891 91.956C279.891 92.46 280.367 92.782 281.053 92.782C281.963 92.782 282.691 92.194 282.691 91.466V91.004L280.815 91.172C280.199 91.228 279.891 91.48 279.891 91.956ZM288.328 94C287.012 94 286.34 93.216 286.34 92.18V88.344H284.926V86.762H286.34V84.662H288.16V86.762H289.756V88.344H288.16V91.858C288.16 92.236 288.426 92.418 288.846 92.418H289.756V94H288.328ZM296.738 88.372H296.08C295.212 88.372 294.54 89.002 294.54 90.108V94H292.706V86.762H294.526V87.546C294.89 87.014 295.464 86.692 296.248 86.692H296.738V88.372ZM296.782 90.374C296.782 88.358 298.392 86.594 300.534 86.594C302.704 86.594 304.244 88.204 304.244 90.458V90.99H298.658C298.896 91.928 299.68 92.614 300.688 92.614C301.458 92.614 302.06 92.348 302.592 91.662L303.866 92.614C303.138 93.608 302.046 94.182 300.702 94.182C298.49 94.182 296.782 92.586 296.782 90.374ZM300.492 88.162C299.638 88.162 298.938 88.708 298.686 89.59H302.396C302.13 88.694 301.374 88.162 300.492 88.162ZM304.486 91.97C304.486 90.668 305.368 89.926 306.908 89.814L309.036 89.66V89.38C309.036 88.666 308.56 88.232 307.706 88.232C307.048 88.232 306.432 88.442 305.788 88.876L305.018 87.574C305.858 86.958 306.824 86.608 307.93 86.608C309.666 86.608 310.814 87.616 310.814 89.156V91.998C310.814 92.264 310.954 92.418 311.22 92.418H311.598V94H310.744C310.044 94 309.512 93.678 309.26 93.146C308.756 93.79 307.958 94.182 306.992 94.182C305.55 94.182 304.486 93.244 304.486 91.97ZM306.236 91.956C306.236 92.46 306.712 92.782 307.398 92.782C308.308 92.782 309.036 92.194 309.036 91.466V91.004L307.16 91.172C306.544 91.228 306.236 91.48 306.236 91.956ZM319.75 94H317.93V93.328C317.286 93.874 316.474 94.196 315.592 94.196C313.436 94.196 311.728 92.474 311.728 90.388C311.728 88.288 313.436 86.58 315.592 86.58C316.474 86.58 317.272 86.902 317.916 87.434V84.2H319.75V94ZM317.944 90.388C317.944 89.156 316.964 88.19 315.746 88.19C314.542 88.19 313.548 89.156 313.548 90.388C313.548 91.606 314.542 92.6 315.746 92.6C316.964 92.6 317.944 91.606 317.944 90.388ZM322.728 94.672L323.064 93.86L319.984 86.762H321.958L323.96 91.648L325.934 86.762H327.838L324.31 95.358C323.834 96.534 323.218 96.94 322.112 96.94H321.034V95.4H321.734C322.238 95.4 322.504 95.232 322.728 94.672ZM333.469 94C332.153 94 331.481 93.216 331.481 92.18V88.344H330.067V86.762H331.481V84.662H333.301V86.762H334.897V88.344H333.301V91.858C333.301 92.236 333.567 92.418 333.987 92.418H334.897V94H333.469ZM343.064 90.388C343.064 92.488 341.286 94.196 339.088 94.196C336.904 94.196 335.112 92.488 335.112 90.388C335.112 88.288 336.904 86.58 339.088 86.58C341.286 86.58 343.064 88.274 343.064 90.388ZM341.244 90.388C341.244 89.17 340.292 88.204 339.088 88.204C337.898 88.204 336.932 89.17 336.932 90.388C336.932 91.606 337.898 92.572 339.088 92.572C340.292 92.572 341.244 91.606 341.244 90.388ZM349.162 94.168C347.258 94.168 346.096 93.104 345.816 91.718H347.552C347.734 92.446 348.378 92.754 349.162 92.754C349.834 92.754 350.198 92.446 350.198 92.012C350.198 91.718 349.96 91.466 349.47 91.34L347.972 90.99C346.628 90.668 345.942 89.968 345.942 88.862C345.942 87.476 347.09 86.58 348.644 86.58C350.492 86.58 351.612 87.672 351.822 89.058H350.1C349.904 88.302 349.232 87.994 348.63 87.994C348.042 87.994 347.734 88.288 347.734 88.666C347.734 89.044 348.028 89.296 348.602 89.436L349.988 89.772C351.318 90.094 351.976 90.794 351.976 91.872C351.976 93.174 350.912 94.168 349.162 94.168ZM352.295 90.374C352.295 88.358 353.905 86.594 356.047 86.594C358.217 86.594 359.757 88.204 359.757 90.458V90.99H354.171C354.409 91.928 355.193 92.614 356.201 92.614C356.971 92.614 357.573 92.348 358.105 91.662L359.379 92.614C358.651 93.608 357.559 94.182 356.215 94.182C354.003 94.182 352.295 92.586 352.295 90.374ZM356.005 88.162C355.151 88.162 354.451 88.708 354.199 89.59H357.909C357.643 88.694 356.887 88.162 356.005 88.162ZM364.489 88.372H363.831C362.963 88.372 362.291 89.002 362.291 90.108V94H360.457V86.762H362.277V87.546C362.641 87.014 363.215 86.692 363.999 86.692H364.489V88.372ZM367.646 94L364.496 86.762H366.47L368.458 91.634L370.446 86.762H372.35L369.214 94H367.646ZM371.911 90.374C371.911 88.358 373.521 86.594 375.663 86.594C377.833 86.594 379.373 88.204 379.373 90.458V90.99H373.787C374.025 91.928 374.809 92.614 375.817 92.614C376.587 92.614 377.189 92.348 377.721 91.662L378.995 92.614C378.267 93.608 377.175 94.182 375.831 94.182C373.619 94.182 371.911 92.586 371.911 90.374ZM375.621 88.162C374.767 88.162 374.067 88.708 373.815 89.59H377.525C377.259 88.694 376.503 88.162 375.621 88.162ZM384.6 94.672L384.936 93.86L381.856 86.762H383.83L385.832 91.648L387.806 86.762H389.71L386.182 95.358C385.706 96.534 385.09 96.94 383.984 96.94H382.906V95.4H383.606C384.11 95.4 384.376 95.232 384.6 94.672ZM397.223 90.388C397.223 92.488 395.445 94.196 393.247 94.196C391.063 94.196 389.271 92.488 389.271 90.388C389.271 88.288 391.063 86.58 393.247 86.58C395.445 86.58 397.223 88.274 397.223 90.388ZM395.403 90.388C395.403 89.17 394.451 88.204 393.247 88.204C392.057 88.204 391.091 89.17 391.091 90.388C391.091 91.606 392.057 92.572 393.247 92.572C394.451 92.572 395.403 91.606 395.403 90.388ZM397.912 91.368V86.762H399.746V91.004C399.746 91.9 400.348 92.558 401.244 92.558C402.14 92.558 402.756 91.928 402.756 91.004V86.762H404.59V94H402.756V93.356C402.252 93.874 401.552 94.168 400.768 94.168C399.074 94.168 397.912 92.936 397.912 91.368ZM407.23 91.326H405.676L405.536 84.2H407.356L407.23 91.326ZM406.446 92.11C407.006 92.11 407.454 92.558 407.454 93.118C407.454 93.678 407.006 94.112 406.446 94.112C405.886 94.112 405.438 93.678 405.438 93.118C405.438 92.558 405.886 92.11 406.446 92.11Z" fill="black" fill-opacity="0.8"/>
<path d="M0 45.1754C0 33.0639 9.81832 23.2456 21.9298 23.2456V23.2456V78.0702C21.9298 90.1817 12.1115 100 0 100V100V45.1754Z" fill="black"/>
<path d="M26.7539 35.0877C26.7539 15.7093 42.4632 0 61.8416 0V0V17.5439C61.8416 36.9223 46.1323 52.6316 26.7539 52.6316V52.6316V35.0877Z" fill="black"/>
<path d="M26.7539 35.0877C26.7539 15.7093 42.4632 0 61.8416 0V0V17.5439C61.8416 36.9223 46.1323 52.6316 26.7539 52.6316V52.6316V35.0877Z" fill="black"/>
</svg>
