<svg width="41" height="40" viewBox="0 0 41 40" fill="none" xmlns="http://www.w3.org/2000/svg">
<path d="M25.0812 4.44444C24.4918 4.44444 23.9266 4.21032 23.5098 3.79357C23.0931 3.37682 22.8589 2.81159 22.8589 2.22222C22.8589 1.63285 23.0931 1.06762 23.5098 0.650874C23.9266 0.234126 24.4918 0 25.0812 0H38.4145C39.0039 0 39.5691 0.234126 39.9858 0.650874C40.4026 1.06762 40.6367 1.63285 40.6367 2.22222V15.5556C40.6367 16.1449 40.4026 16.7102 39.9858 17.1269C39.5691 17.5437 39.0039 17.7778 38.4145 17.7778C37.8251 17.7778 37.2599 17.5437 36.8431 17.1269C36.4264 16.7102 36.1923 16.1449 36.1923 15.5556V7.58667L15.5412 28.2378C15.122 28.6426 14.5607 28.8666 13.9781 28.8615C13.3954 28.8564 12.838 28.6227 12.426 28.2107C12.014 27.7987 11.7803 27.2413 11.7752 26.6587C11.7702 26.076 11.9941 25.5147 12.3989 25.0956L33.0501 4.44444H25.0812ZM0.636719 8.88889C0.636719 7.71015 1.10497 6.57969 1.93847 5.74619C2.77196 4.9127 3.90242 4.44444 5.08116 4.44444H16.1923C16.7816 4.44444 17.3469 4.67857 17.7636 5.09532C18.1804 5.51207 18.4145 6.0773 18.4145 6.66667C18.4145 7.25604 18.1804 7.82127 17.7636 8.23802C17.3469 8.65476 16.7816 8.88889 16.1923 8.88889H5.08116V35.5556H31.7478V24.4444C31.7478 23.8551 31.982 23.2898 32.3987 22.8731C32.8155 22.4564 33.3807 22.2222 33.9701 22.2222C34.5594 22.2222 35.1247 22.4564 35.5414 22.8731C35.9582 23.2898 36.1923 23.8551 36.1923 24.4444V35.5556C36.1923 36.7343 35.724 37.8648 34.8905 38.6983C34.057 39.5317 32.9266 40 31.7478 40H5.08116C3.90242 40 2.77196 39.5317 1.93847 38.6983C1.10497 37.8648 0.636719 36.7343 0.636719 35.5556V8.88889Z" fill="#FF8400"/>
</svg>
