<svg width="30" height="25" viewBox="0 0 30 25" fill="none" xmlns="http://www.w3.org/2000/svg">
<path d="M9.42375 24.3763C20.745 24.3763 26.9381 14.9957 26.9381 6.87505C26.9381 6.61255 26.9381 6.3463 26.9269 6.0838C28.1326 5.21096 29.1732 4.13033 30 2.89255C28.8737 3.38914 27.6802 3.71644 26.4581 3.8638C27.7454 3.09437 28.7095 1.88374 29.1712 0.456925C27.9619 1.17341 26.6382 1.67637 25.2581 1.9438C24.3303 0.955719 23.1026 0.301145 21.7652 0.0814699C20.4277 -0.138206 19.0551 0.0892774 17.86 0.728682C16.6649 1.36809 15.714 2.38373 15.1546 3.61829C14.5952 4.85285 14.4585 6.23742 14.7656 7.55755C12.3183 7.43483 9.92403 6.79905 7.73821 5.69144C5.55238 4.58383 3.62378 3.02913 2.0775 1.12817C1.29251 2.48396 1.05295 4.08768 1.40746 5.61367C1.76197 7.13967 2.68398 8.47354 3.98625 9.34443C3.01039 9.31127 2.05598 9.04922 1.2 8.57943V8.6638C1.20168 10.0841 1.6937 11.4602 2.59289 12.5596C3.49208 13.659 4.74328 14.4142 6.135 14.6976C5.60674 14.8431 5.06106 14.9156 4.51313 14.9132C4.12684 14.9143 3.74134 14.8786 3.36187 14.8063C3.75522 16.0289 4.52114 17.0979 5.55234 17.8634C6.58354 18.629 7.82838 19.0529 9.1125 19.0757C6.93104 20.7891 4.23638 21.7183 1.4625 21.7138C0.973726 21.7159 0.485293 21.6877 0 21.6294C2.81534 23.4243 6.08493 24.3773 9.42375 24.3763Z" fill="white"/>
</svg>
