<svg width="28" height="40" viewBox="0 0 28 40" fill="none" xmlns="http://www.w3.org/2000/svg">
<path d="M28 14C28 15.8385 27.6379 17.659 26.9343 19.3575C26.2307 21.0561 25.1995 22.5995 23.8995 23.8995C22.5995 25.1995 21.0561 26.2307 19.3575 26.9343C17.659 27.6378 15.8385 28 14 28C12.1615 28 10.341 27.6378 8.64242 26.9343C6.94387 26.2307 5.40052 25.1995 4.1005 23.8995C2.80048 22.5995 1.76925 21.0561 1.06569 19.3575C0.36212 17.659 -2.73958e-08 15.8385 0 14C5.53284e-08 10.287 1.47499 6.72601 4.1005 4.1005C6.72601 1.47499 10.287 0 14 0C17.713 0 21.274 1.47499 23.8995 4.1005C26.525 6.72601 28 10.287 28 14Z" fill="black" fill-opacity="0.6"/>
<path d="M4.18571 27.882L3.42771 30.646C2.17171 35.23 1.54371 37.522 2.38171 38.776C2.67571 39.216 3.06971 39.568 3.52771 39.802C4.83171 40.466 6.84771 39.416 10.8777 37.316C12.2177 36.616 12.8897 36.268 13.6017 36.192C13.8663 36.1636 14.1331 36.1636 14.3977 36.192C15.1097 36.268 15.7797 36.618 17.1217 37.316C21.1517 39.416 23.1677 40.466 24.4717 39.802C24.9297 39.568 25.3237 39.216 25.6177 38.776C26.4577 37.522 25.8277 35.23 24.5717 30.646L23.8137 27.882C20.9457 29.9156 17.5155 31.0054 13.9997 31C10.4839 31.0055 7.05364 29.9157 4.18571 27.882Z" fill="black" fill-opacity="0.6"/>
</svg>
