<svg width="33" height="40" viewBox="0 0 33 40" fill="none" xmlns="http://www.w3.org/2000/svg">
<path d="M15.4963 0.585579C15.8714 0.210633 16.38 0 16.9103 0C17.4407 0 17.9493 0.210633 18.3243 0.585579L24.3244 6.58564C24.6887 6.96285 24.8903 7.46806 24.8858 7.99246C24.8812 8.51686 24.6709 9.01849 24.3 9.38931C23.9292 9.76013 23.4276 9.97047 22.9032 9.97503C22.3788 9.97958 21.8736 9.77799 21.4964 9.41367L18.9103 6.82765V25.9999C18.9103 26.5303 18.6996 27.039 18.3246 27.4141C17.9495 27.7892 17.4408 27.9999 16.9103 27.9999C16.3799 27.9999 15.8712 27.7892 15.4961 27.4141C15.121 27.039 14.9103 26.5303 14.9103 25.9999V6.82765L12.3243 9.41367C11.9471 9.77799 11.4419 9.97958 10.9175 9.97503C10.3931 9.97047 9.89143 9.76013 9.52061 9.38931C9.14979 9.01849 8.93945 8.51686 8.93489 7.99246C8.93034 7.46806 9.13193 6.96285 9.49625 6.58564L15.4963 0.585579ZM0.910156 17.9998C0.910156 16.9389 1.33159 15.9215 2.08174 15.1713C2.83189 14.4212 3.84932 13.9997 4.9102 13.9997H8.91024C9.44068 13.9997 9.94939 14.2104 10.3245 14.5855C10.6995 14.9606 10.9103 15.4693 10.9103 15.9997C10.9103 16.5302 10.6995 17.0389 10.3245 17.414C9.94939 17.789 9.44068 17.9998 8.91024 17.9998H4.9102V36H28.9105V17.9998H24.9104C24.38 17.9998 23.8713 17.789 23.4962 17.414C23.1211 17.0389 22.9104 16.5302 22.9104 15.9997C22.9104 15.4693 23.1211 14.9606 23.4962 14.5855C23.8713 14.2104 24.38 13.9997 24.9104 13.9997H28.9105C29.9713 13.9997 30.9888 14.4212 31.7389 15.1713C32.4891 15.9215 32.9105 16.9389 32.9105 17.9998V36C32.9105 37.0608 32.4891 38.0783 31.7389 38.8284C30.9888 39.5786 29.9713 40 28.9105 40H4.9102C3.84932 40 2.83189 39.5786 2.08174 38.8284C1.33159 38.0783 0.910156 37.0608 0.910156 36V17.9998Z" fill="#FF8400"/>
</svg>
