<svg width="60" height="60" viewBox="0 0 60 60" fill="none" xmlns="http://www.w3.org/2000/svg">
<path d="M33 30.6V21C33 20.15 32.712 19.437 32.136 18.861C31.56 18.285 30.848 17.998 30 18C29.15 18 28.437 18.288 27.861 18.864C27.285 19.44 26.998 20.152 27 21V30.6L24.3 27.9C23.75 27.35 23.05 27.075 22.2 27.075C21.35 27.075 20.65 27.35 20.1 27.9C19.55 28.45 19.275 29.15 19.275 30C19.275 30.85 19.55 31.55 20.1 32.1L27.9 39.9C28.5 40.5 29.2 40.8 30 40.8C30.8 40.8 31.5 40.5 32.1 39.9L39.9 32.1C40.45 31.55 40.725 30.85 40.725 30C40.725 29.15 40.45 28.45 39.9 27.9C39.35 27.35 38.65 27.075 37.8 27.075C36.95 27.075 36.25 27.35 35.7 27.9L33 30.6ZM30 3.8147e-06C34.15 3.8147e-06 38.05 0.788006 41.7 2.36401C45.35 3.94001 48.525 6.077 51.225 8.775C53.925 11.475 56.062 14.65 57.636 18.3C59.21 21.95 59.998 25.85 60 30C60 34.15 59.212 38.05 57.636 41.7C56.06 45.35 53.923 48.525 51.225 51.225C48.525 53.925 45.35 56.062 41.7 57.636C38.05 59.21 34.15 59.998 30 60C25.85 60 21.95 59.212 18.3 57.636C14.65 56.06 11.475 53.923 8.775 51.225C6.075 48.525 3.93701 45.35 2.36101 41.7C0.785007 38.05 -0.00199509 34.15 3.8147e-06 30C3.8147e-06 25.85 0.788006 21.95 2.36401 18.3C3.94001 14.65 6.077 11.475 8.775 8.775C11.475 6.075 14.65 3.93701 18.3 2.36101C21.95 0.785007 25.85 -0.00199509 30 3.8147e-06Z" fill="#070606" fill-opacity="0.4"/>
</svg>
